<?xml version="1.0" encoding="utf-8"?>
<!-- Generator: Adobe Illustrator 23.0.6, SVG Export Plug-In . SVG Version: 6.00 Build 0)  -->
<svg version="1.1" id="Layer_1" xmlns="http://www.w3.org/2000/svg" xmlns:xlink="http://www.w3.org/1999/xlink" x="0px" y="0px"
	 viewBox="0 0 173.2 41" style="enable-background:new 0 0 173.2 41;" xml:space="preserve">
<style type="text/css">
	.st0{fill:#FFFFFF;}
</style>
<title>Asset 12</title>
<rect x="16.7" y="10.5" class="st0" width="6.2" height="8.5"/>
<path class="st0" d="M40.2,0H1C0.4,0,0,0.4,0,1v39c0,0.6,0.4,1,1,1h39.2c0.6,0,1-0.4,1-1V1C41.2,0.4,40.8,0,40.2,0z M33.9,21.7
	c0,0.2-0.1,0.3-0.3,0.3H26v8.5h7.6c0.2,0,0.3,0.1,0.3,0.3v2.4c0,0.2-0.1,0.3-0.3,0.3l0,0H23.1c-0.2,0-0.3-0.1-0.3-0.3l0,0V22h-6.2
	v11.2c0,0.2-0.1,0.3-0.3,0.3h-2.6c-0.2,0-0.3-0.1-0.3-0.3V22H7.6c-0.2,0-0.3-0.2-0.3-0.3v-2.3c0-0.2,0.1-0.3,0.3-0.3h5.8v-8.5H7.6
	c-0.2,0-0.3-0.1-0.3-0.3V7.9c0-0.2,0.1-0.3,0.3-0.3l0,0h18.2c0.2,0,0.3,0.1,0.3,0.3l0,0V19h7.6c0.2,0,0.3,0.2,0.3,0.3L33.9,21.7
	L33.9,21.7z"/>
<path class="st0" d="M57.7,32.3h-2.9V11.8h-5.5V9.2h13.9v2.6h-5.5C57.7,11.8,57.7,32.3,57.7,32.3z"/>
<path class="st0" d="M88,20.8c0,6.7-5.4,12.1-12.1,12.1s-12.1-5.4-12.1-12.1S69.2,8.7,75.9,8.7C82.6,8.6,88,14.1,88,20.8z
	 M85.1,20.8c0.2-5.1-3.8-9.4-8.9-9.5c-5.1-0.2-9.4,3.8-9.5,8.9c0,0.2,0,0.4,0,0.6c-0.2,5.1,3.8,9.4,8.9,9.5c5.1,0.2,9.4-3.8,9.5-8.9
	C85.1,21.2,85.1,21,85.1,20.8z"/>
<path class="st0" d="M94.7,17L94.7,17L92,32.3h-3l4.7-24.1l8,18.2l7.9-18.2l4.7,24.1h-3L108.7,17h-0.1l-6.9,15.8L94.7,17z"/>
<path class="st0" d="M128.7,29.7h7v2.6h-9.9V9.2h2.9V29.7z"/>
<path class="st0" d="M143.1,32.3h-2.9V9.2h2.9V32.3z"/>
<path class="st0" d="M153.6,17L153.6,17l-2.8,15.3h-3l4.7-24.1l8,18.2l7.9-18.2l4.7,24.1h-3L167.5,17h-0.1l-6.9,15.8L153.6,17z"/>
</svg>
